<svg width="120" height="36" viewBox="0 0 120 36" fill="none" xmlns="http://www.w3.org/2000/svg" aria-label="Noir">
  <defs>
    <linearGradient id="nav-bg" x1="0" y1="0" x2="1" y2="1">
      <stop offset="0%" stop-color="#17171b"/>
      <stop offset="100%" stop-color="#050506"/>
    </linearGradient>
    <linearGradient id="nav-mk" x1="0" y1="0" x2="0" y2="1">
      <stop offset="0%" stop-color="#f6f6f8"/>
      <stop offset="100%" stop-color="#c2c2cb"/>
    </linearGradient>
  </defs>

  <!-- Icon: dark rounded square -->
  <rect width="36" height="36" rx="9" fill="url(#nav-bg)"/>
  <rect x="0.75" y="0.75" width="34.5" height="34.5" rx="8.25" fill="none" stroke="#ffffff" stroke-opacity="0.08" stroke-width="1.5"/>

  <!-- Flame / spade mark (scaled from 48x48 → 36x36, factor 0.75) -->
  <path d="M18 7.1s-8.25 6.3-8.25 12.15c0 3.15 2.4 4.95 4.95 4.425-.45 2.175-1.725 3.525-3.075 4.425h12.75c-1.35-.9-2.625-2.25-3.075-4.425 2.55.525 4.95-1.275 4.95-4.425C26.25 13.4 18 7.1 18 7.1Z" fill="url(#nav-mk)"/>
  <path d="M8.25 22.875c3.15-1.8 5.55 1.65 8.7.15 3.15-1.5 5.4 1.35 7.05.15" stroke="#8a8a93" stroke-width="1.575" fill="none" stroke-linecap="round" opacity="0.95"/>

  <!-- Wordmark -->
  <text x="46" y="24" font-size="18" font-weight="600" fill="#f4f4f5" font-family="ui-sans-serif,system-ui,-apple-system,sans-serif" letter-spacing="0.3">Noir</text>
</svg>
